<svg width="0" height="0" class="hidden">
  <symbol xmlns="http://www.w3.org/2000/svg" viewBox="0 0 48 48" id="add">
    <path d="M38 26H26v12h-4V26H10v-4h12V10h4v12h12v4z"></path>
    <path d="M0 0h48v48H0z" fill="none"></path>
  </symbol>
  <symbol xmlns="http://www.w3.org/2000/svg" viewBox="0 0 48 48" id="error">
    <path d="M0 0h48v48h-48z" fill="none"></path>
    <path d="M24 4c-11.04 0-20 8.95-20 20s8.96 20 20 20 20-8.95 20-20-8.96-20-20-20zm2 30h-4v-4h4v4zm0-8h-4v-12h4v12z"></path>
  </symbol>
  <symbol version="1.1" xmlns="http://www.w3.org/2000/svg" xmlnsCc="http://creativecommons.org/ns#" xmlnsDc="http://purl.org/dc/elements/1.1/" xmlnsRdf="http://www.w3.org/1999/02/22-rdf-syntax-ns#" viewBox="0 0 24 24" id="folder">
    <g transform="translate(0 -1028.4)">
      <path d="m12 1034.4c0 1.1-0.895 2-2 2h-5-3c-1.1046 0-2 0.9-2 2v8 3c0 1.1 0.89543 2 2 2h20c1.105 0 2-0.9 2-2v-3-10c0-1.1-0.895-2-2-2h-10z" fill="#2980b9"></path>
      <path d="m2 2c-1.1046 0-2 0.8954-2 2v5h10v1h14v-5c0-1.1046-0.895-2-2-2h-10.281c-0.346-0.5969-0.979-1-1.719-1h-8z" fill="#2980b9" transform="translate(0 1028.4)"></path>
      <path d="m12 1033.4c0 1.1-0.895 2-2 2h-5-3c-1.1046 0-2 0.9-2 2v8 3c0 1.1 0.89543 2 2 2h20c1.105 0 2-0.9 2-2v-3-10c0-1.1-0.895-2-2-2h-10z" fill="#3498db"></path>
    </g>
  </symbol>
  <symbol xmlns="http://www.w3.org/2000/svg" viewBox="0 0 48 48" id="remove">
    <path d="M38 12.83L35.17 10 24 21.17 12.83 10 10 12.83 21.17 24 10 35.17 12.83 38 24 26.83 35.17 38 38 35.17 26.83 24z"></path>
    <path d="M0 0h48v48H0z" fill="none"></path>
  </symbol>
</svg>